<?xml version="1.0" encoding="UTF-8" standalone="no"?>
<!DOCTYPE svg PUBLIC "-//W3C//DTD SVG 1.1//EN"
 "http://www.w3.org/Graphics/SVG/1.1/DTD/svg11.dtd">
<!-- Generated by graphviz version 2.44.1 (20200629.0846)
 -->
<!-- Title: dependencies Pages: 1 -->
<svg width="504pt" height="211pt"
 viewBox="0.00 0.00 504.00 211.00" xmlns="http://www.w3.org/2000/svg" xmlns:xlink="http://www.w3.org/1999/xlink">
<g id="graph0" class="graph" transform="scale(1 1) rotate(0) translate(4 207)">
<title>dependencies</title>
<polygon fill="white" stroke="transparent" points="-4,4 -4,-207 500,-207 500,4 -4,4"/>
<text text-anchor="start" x="227.01" y="-42.4" font-family="sans-serif" font-weight="bold" font-size="14.00">Legend</text>
<polygon fill="#ffffb3" stroke="transparent" points="14,-10 14,-30 34,-30 34,-10 14,-10"/>
<text text-anchor="start" x="37.63" y="-15.4" font-family="sans-serif" font-size="14.00"> &#160;Declarations</text>
<polygon fill="#8dd3c7" stroke="transparent" points="127,-10 127,-30 147,-30 147,-10 127,-10"/>
<text text-anchor="start" x="150.73" y="-15.4" font-family="sans-serif" font-size="14.00"> &#160;Module</text>
<polygon fill="#80b1d3" stroke="transparent" points="213,-10 213,-30 233,-30 233,-10 213,-10"/>
<text text-anchor="start" x="236.78" y="-15.4" font-family="sans-serif" font-size="14.00"> &#160;Bootstrap</text>
<polygon fill="#fdb462" stroke="transparent" points="310,-10 310,-30 330,-30 330,-10 310,-10"/>
<text text-anchor="start" x="333.67" y="-15.4" font-family="sans-serif" font-size="14.00"> &#160;Providers</text>
<polygon fill="#fb8072" stroke="transparent" points="406,-10 406,-30 426,-30 426,-10 406,-10"/>
<text text-anchor="start" x="429.73" y="-15.4" font-family="sans-serif" font-size="14.00"> &#160;Exports</text>
<g id="clust1" class="cluster">
<title>cluster_TicketModule</title>
<polygon fill="none" stroke="black" stroke-dasharray="1,5" points="112,-70 112,-195 384,-195 384,-70 112,-70"/>
</g>
<g id="clust3" class="cluster">
<title>cluster_TicketModule_imports</title>
<polygon fill="none" stroke="black" points="274,-78 274,-130 376,-130 376,-78 274,-78"/>
</g>
<g id="clust6" class="cluster">
<title>cluster_TicketModule_providers</title>
<polygon fill="none" stroke="black" points="120,-78 120,-130 266,-130 266,-78 120,-78"/>
</g>
<!-- UserModule -->
<g id="node1" class="node">
<title>UserModule</title>
<polygon fill="#8dd3c7" stroke="black" points="367.98,-122 364.98,-126 343.98,-126 340.98,-122 282.02,-122 282.02,-86 367.98,-86 367.98,-122"/>
<text text-anchor="middle" x="325" y="-99.8" font-family="Times,serif" font-size="14.00">UserModule</text>
</g>
<!-- TicketModule -->
<g id="node2" class="node">
<title>TicketModule</title>
<polygon fill="#8dd3c7" stroke="black" points="306.81,-187 303.81,-191 282.81,-191 279.81,-187 211.19,-187 211.19,-151 306.81,-151 306.81,-187"/>
<text text-anchor="middle" x="259" y="-164.8" font-family="Times,serif" font-size="14.00">TicketModule</text>
</g>
<!-- UserModule&#45;&gt;TicketModule -->
<g id="edge1" class="edge">
<title>UserModule&#45;&gt;TicketModule</title>
<path fill="none" stroke="black" d="M294.33,-122.11C294.33,-122.11 294.33,-140.99 294.33,-140.99"/>
<polygon fill="black" stroke="black" points="290.83,-140.99 294.33,-150.99 297.83,-140.99 290.83,-140.99"/>
</g>
<!-- TicketService -->
<g id="node3" class="node">
<title>TicketService</title>
<ellipse fill="#fdb462" stroke="black" cx="193" cy="-104" rx="64.82" ry="18"/>
<text text-anchor="middle" x="193" y="-99.8" font-family="Times,serif" font-size="14.00">TicketService</text>
</g>
<!-- TicketService&#45;&gt;TicketModule -->
<g id="edge2" class="edge">
<title>TicketService&#45;&gt;TicketModule</title>
<path fill="none" stroke="black" d="M234.5,-118.1C234.5,-118.1 234.5,-140.72 234.5,-140.72"/>
<polygon fill="black" stroke="black" points="231,-140.72 234.5,-150.72 238,-140.72 231,-140.72"/>
</g>
</g>
</svg>
