<?xml version="1.0" encoding="UTF-8" standalone="no"?>
<!DOCTYPE svg PUBLIC "-//W3C//DTD SVG 1.1//EN"
 "http://www.w3.org/Graphics/SVG/1.1/DTD/svg11.dtd">
<!-- Generated by graphviz version 2.44.1 (20200629.0846)
 -->
<!-- Title: dependencies Pages: 1 -->
<svg width="990pt" height="211pt"
 viewBox="0.00 0.00 990.00 211.00" xmlns="http://www.w3.org/2000/svg" xmlns:xlink="http://www.w3.org/1999/xlink">
<g id="graph0" class="graph" transform="scale(1 1) rotate(0) translate(4 207)">
<title>dependencies</title>
<polygon fill="white" stroke="transparent" points="-4,4 -4,-207 986,-207 986,4 -4,4"/>
<text text-anchor="start" x="470.01" y="-42.4" font-family="sans-serif" font-weight="bold" font-size="14.00">Legend</text>
<polygon fill="#ffffb3" stroke="transparent" points="257,-10 257,-30 277,-30 277,-10 257,-10"/>
<text text-anchor="start" x="280.63" y="-15.4" font-family="sans-serif" font-size="14.00"> &#160;Declarations</text>
<polygon fill="#8dd3c7" stroke="transparent" points="370,-10 370,-30 390,-30 390,-10 370,-10"/>
<text text-anchor="start" x="393.73" y="-15.4" font-family="sans-serif" font-size="14.00"> &#160;Module</text>
<polygon fill="#80b1d3" stroke="transparent" points="456,-10 456,-30 476,-30 476,-10 456,-10"/>
<text text-anchor="start" x="479.78" y="-15.4" font-family="sans-serif" font-size="14.00"> &#160;Bootstrap</text>
<polygon fill="#fdb462" stroke="transparent" points="553,-10 553,-30 573,-30 573,-10 553,-10"/>
<text text-anchor="start" x="576.67" y="-15.4" font-family="sans-serif" font-size="14.00"> &#160;Providers</text>
<polygon fill="#fb8072" stroke="transparent" points="649,-10 649,-30 669,-30 669,-10 649,-10"/>
<text text-anchor="start" x="672.73" y="-15.4" font-family="sans-serif" font-size="14.00"> &#160;Exports</text>
<g id="clust1" class="cluster">
<title>cluster_AppModule</title>
<polygon fill="none" stroke="black" stroke-dasharray="1,5" points="8,-70 8,-195 974,-195 974,-70 8,-70"/>
</g>
<g id="clust3" class="cluster">
<title>cluster_AppModule_imports</title>
<polygon fill="none" stroke="black" points="154,-78 154,-130 966,-130 966,-78 154,-78"/>
</g>
<g id="clust6" class="cluster">
<title>cluster_AppModule_providers</title>
<polygon fill="none" stroke="black" points="16,-78 16,-130 146,-130 146,-78 16,-78"/>
</g>
<!-- AuthModule -->
<g id="node1" class="node">
<title>AuthModule</title>
<polygon fill="#8dd3c7" stroke="black" points="957.55,-122 954.55,-126 933.55,-126 930.55,-122 870.45,-122 870.45,-86 957.55,-86 957.55,-122"/>
<text text-anchor="middle" x="914" y="-99.8" font-family="Times,serif" font-size="14.00">AuthModule</text>
</g>
<!-- AppModule -->
<g id="node8" class="node">
<title>AppModule</title>
<polygon fill="#8dd3c7" stroke="black" points="528.66,-187 525.66,-191 504.66,-191 501.66,-187 445.34,-187 445.34,-151 528.66,-151 528.66,-187"/>
<text text-anchor="middle" x="487" y="-164.8" font-family="Times,serif" font-size="14.00">AppModule</text>
</g>
<!-- AuthModule&#45;&gt;AppModule -->
<g id="edge1" class="edge">
<title>AuthModule&#45;&gt;AppModule</title>
<path fill="none" stroke="black" d="M914,-122.29C914,-144.21 914,-178 914,-178 914,-178 538.72,-178 538.72,-178"/>
<polygon fill="black" stroke="black" points="538.72,-174.5 528.72,-178 538.72,-181.5 538.72,-174.5"/>
</g>
<!-- ClientModule -->
<g id="node2" class="node">
<title>ClientModule</title>
<polygon fill="#8dd3c7" stroke="black" points="851.77,-122 848.77,-126 827.77,-126 824.77,-122 758.23,-122 758.23,-86 851.77,-86 851.77,-122"/>
<text text-anchor="middle" x="805" y="-99.8" font-family="Times,serif" font-size="14.00">ClientModule</text>
</g>
<!-- ClientModule&#45;&gt;AppModule -->
<g id="edge2" class="edge">
<title>ClientModule&#45;&gt;AppModule</title>
<path fill="none" stroke="black" d="M805,-122.11C805,-141.34 805,-169 805,-169 805,-169 538.9,-169 538.9,-169"/>
<polygon fill="black" stroke="black" points="538.9,-165.5 528.9,-169 538.9,-172.5 538.9,-165.5"/>
</g>
<!-- CurriculumModule -->
<g id="node3" class="node">
<title>CurriculumModule</title>
<polygon fill="#8dd3c7" stroke="black" points="740.09,-122 737.09,-126 716.09,-126 713.09,-122 615.91,-122 615.91,-86 740.09,-86 740.09,-122"/>
<text text-anchor="middle" x="678" y="-99.8" font-family="Times,serif" font-size="14.00">CurriculumModule</text>
</g>
<!-- CurriculumModule&#45;&gt;AppModule -->
<g id="edge3" class="edge">
<title>CurriculumModule&#45;&gt;AppModule</title>
<path fill="none" stroke="black" d="M678,-122.03C678,-138.4 678,-160 678,-160 678,-160 538.92,-160 538.92,-160"/>
<polygon fill="black" stroke="black" points="538.92,-156.5 528.92,-160 538.92,-163.5 538.92,-156.5"/>
</g>
<!-- HelpersModule -->
<g id="node4" class="node">
<title>HelpersModule</title>
<polygon fill="#8dd3c7" stroke="black" points="597.58,-122 594.58,-126 573.58,-126 570.58,-122 494.42,-122 494.42,-86 597.58,-86 597.58,-122"/>
<text text-anchor="middle" x="546" y="-99.8" font-family="Times,serif" font-size="14.00">HelpersModule</text>
</g>
<!-- HelpersModule&#45;&gt;AppModule -->
<g id="edge4" class="edge">
<title>HelpersModule&#45;&gt;AppModule</title>
<path fill="none" stroke="black" d="M511.64,-122.11C511.64,-122.11 511.64,-140.99 511.64,-140.99"/>
<polygon fill="black" stroke="black" points="508.14,-140.99 511.64,-150.99 515.14,-140.99 508.14,-140.99"/>
</g>
<!-- ProfileModule -->
<g id="node5" class="node">
<title>ProfileModule</title>
<polygon fill="#8dd3c7" stroke="black" points="476.65,-122 473.65,-126 452.65,-126 449.65,-122 379.35,-122 379.35,-86 476.65,-86 476.65,-122"/>
<text text-anchor="middle" x="428" y="-99.8" font-family="Times,serif" font-size="14.00">ProfileModule</text>
</g>
<!-- ProfileModule&#45;&gt;AppModule -->
<g id="edge5" class="edge">
<title>ProfileModule&#45;&gt;AppModule</title>
<path fill="none" stroke="black" d="M461,-122.11C461,-122.11 461,-140.99 461,-140.99"/>
<polygon fill="black" stroke="black" points="457.5,-140.99 461,-150.99 464.5,-140.99 457.5,-140.99"/>
</g>
<!-- TicketModule -->
<g id="node6" class="node">
<title>TicketModule</title>
<polygon fill="#8dd3c7" stroke="black" points="361.81,-122 358.81,-126 337.81,-126 334.81,-122 266.19,-122 266.19,-86 361.81,-86 361.81,-122"/>
<text text-anchor="middle" x="314" y="-99.8" font-family="Times,serif" font-size="14.00">TicketModule</text>
</g>
<!-- TicketModule&#45;&gt;AppModule -->
<g id="edge6" class="edge">
<title>TicketModule&#45;&gt;AppModule</title>
<path fill="none" stroke="black" d="M314,-122.03C314,-138.4 314,-160 314,-160 314,-160 435.12,-160 435.12,-160"/>
<polygon fill="black" stroke="black" points="435.12,-163.5 445.12,-160 435.12,-156.5 435.12,-163.5"/>
</g>
<!-- UserModule -->
<g id="node7" class="node">
<title>UserModule</title>
<polygon fill="#8dd3c7" stroke="black" points="247.98,-122 244.98,-126 223.98,-126 220.98,-122 162.02,-122 162.02,-86 247.98,-86 247.98,-122"/>
<text text-anchor="middle" x="205" y="-99.8" font-family="Times,serif" font-size="14.00">UserModule</text>
</g>
<!-- UserModule&#45;&gt;AppModule -->
<g id="edge7" class="edge">
<title>UserModule&#45;&gt;AppModule</title>
<path fill="none" stroke="black" d="M205,-122.11C205,-141.34 205,-169 205,-169 205,-169 435.09,-169 435.09,-169"/>
<polygon fill="black" stroke="black" points="435.09,-172.5 445.09,-169 435.09,-165.5 435.09,-172.5"/>
</g>
<!-- AppService -->
<g id="node9" class="node">
<title>AppService</title>
<ellipse fill="#fdb462" stroke="black" cx="81" cy="-104" rx="56.74" ry="18"/>
<text text-anchor="middle" x="81" y="-99.8" font-family="Times,serif" font-size="14.00">AppService</text>
</g>
<!-- AppService&#45;&gt;AppModule -->
<g id="edge8" class="edge">
<title>AppService&#45;&gt;AppModule</title>
<path fill="none" stroke="black" d="M81,-122.29C81,-144.21 81,-178 81,-178 81,-178 435.08,-178 435.08,-178"/>
<polygon fill="black" stroke="black" points="435.08,-181.5 445.08,-178 435.08,-174.5 435.08,-181.5"/>
</g>
</g>
</svg>
