<?xml version="1.0" encoding="UTF-8" standalone="no"?>
<!DOCTYPE svg PUBLIC "-//W3C//DTD SVG 1.1//EN"
 "http://www.w3.org/Graphics/SVG/1.1/DTD/svg11.dtd">
<!-- Generated by graphviz version 2.44.1 (20200629.0846)
 -->
<!-- Title: dependencies Pages: 1 -->
<svg width="504pt" height="211pt"
 viewBox="0.00 0.00 504.00 211.00" xmlns="http://www.w3.org/2000/svg" xmlns:xlink="http://www.w3.org/1999/xlink">
<g id="graph0" class="graph" transform="scale(1 1) rotate(0) translate(4 207)">
<title>dependencies</title>
<polygon fill="white" stroke="transparent" points="-4,4 -4,-207 500,-207 500,4 -4,4"/>
<text text-anchor="start" x="227.01" y="-42.4" font-family="sans-serif" font-weight="bold" font-size="14.00">Legend</text>
<polygon fill="#ffffb3" stroke="transparent" points="14,-10 14,-30 34,-30 34,-10 14,-10"/>
<text text-anchor="start" x="37.63" y="-15.4" font-family="sans-serif" font-size="14.00"> &#160;Declarations</text>
<polygon fill="#8dd3c7" stroke="transparent" points="127,-10 127,-30 147,-30 147,-10 127,-10"/>
<text text-anchor="start" x="150.73" y="-15.4" font-family="sans-serif" font-size="14.00"> &#160;Module</text>
<polygon fill="#80b1d3" stroke="transparent" points="213,-10 213,-30 233,-30 233,-10 213,-10"/>
<text text-anchor="start" x="236.78" y="-15.4" font-family="sans-serif" font-size="14.00"> &#160;Bootstrap</text>
<polygon fill="#fdb462" stroke="transparent" points="310,-10 310,-30 330,-30 330,-10 310,-10"/>
<text text-anchor="start" x="333.67" y="-15.4" font-family="sans-serif" font-size="14.00"> &#160;Providers</text>
<polygon fill="#fb8072" stroke="transparent" points="406,-10 406,-30 426,-30 426,-10 406,-10"/>
<text text-anchor="start" x="429.73" y="-15.4" font-family="sans-serif" font-size="14.00"> &#160;Exports</text>
<g id="clust1" class="cluster">
<title>cluster_CurriculumModule</title>
<polygon fill="none" stroke="black" stroke-dasharray="1,5" points="92,-70 92,-195 404,-195 404,-70 92,-70"/>
</g>
<g id="clust3" class="cluster">
<title>cluster_CurriculumModule_imports</title>
<polygon fill="none" stroke="black" points="294,-78 294,-130 396,-130 396,-78 294,-78"/>
</g>
<g id="clust6" class="cluster">
<title>cluster_CurriculumModule_providers</title>
<polygon fill="none" stroke="black" points="100,-78 100,-130 286,-130 286,-78 100,-78"/>
</g>
<!-- UserModule -->
<g id="node1" class="node">
<title>UserModule</title>
<polygon fill="#8dd3c7" stroke="black" points="387.98,-122 384.98,-126 363.98,-126 360.98,-122 302.02,-122 302.02,-86 387.98,-86 387.98,-122"/>
<text text-anchor="middle" x="345" y="-99.8" font-family="Times,serif" font-size="14.00">UserModule</text>
</g>
<!-- CurriculumModule -->
<g id="node2" class="node">
<title>CurriculumModule</title>
<polygon fill="#8dd3c7" stroke="black" points="325.09,-187 322.09,-191 301.09,-191 298.09,-187 200.91,-187 200.91,-151 325.09,-151 325.09,-187"/>
<text text-anchor="middle" x="263" y="-164.8" font-family="Times,serif" font-size="14.00">CurriculumModule</text>
</g>
<!-- UserModule&#45;&gt;CurriculumModule -->
<g id="edge1" class="edge">
<title>UserModule&#45;&gt;CurriculumModule</title>
<path fill="none" stroke="black" d="M313.53,-122.11C313.53,-122.11 313.53,-140.99 313.53,-140.99"/>
<polygon fill="black" stroke="black" points="310.03,-140.99 313.53,-150.99 317.03,-140.99 310.03,-140.99"/>
</g>
<!-- CurriculumService -->
<g id="node3" class="node">
<title>CurriculumService</title>
<ellipse fill="#fdb462" stroke="black" cx="193" cy="-104" rx="84.53" ry="18"/>
<text text-anchor="middle" x="193" y="-99.8" font-family="Times,serif" font-size="14.00">CurriculumService</text>
</g>
<!-- CurriculumService&#45;&gt;CurriculumModule -->
<g id="edge2" class="edge">
<title>CurriculumService&#45;&gt;CurriculumModule</title>
<path fill="none" stroke="black" d="M239.23,-119.08C239.23,-119.08 239.23,-140.76 239.23,-140.76"/>
<polygon fill="black" stroke="black" points="235.73,-140.76 239.23,-150.76 242.73,-140.76 235.73,-140.76"/>
</g>
</g>
</svg>
