<?xml version="1.0" encoding="UTF-8" standalone="no"?>
<!DOCTYPE svg PUBLIC "-//W3C//DTD SVG 1.1//EN"
 "http://www.w3.org/Graphics/SVG/1.1/DTD/svg11.dtd">
<!-- Generated by graphviz version 2.44.1 (20200629.0846)
 -->
<!-- Title: dependencies Pages: 1 -->
<svg width="2324pt" height="306pt"
 viewBox="0.00 0.00 2324.00 306.00" xmlns="http://www.w3.org/2000/svg" xmlns:xlink="http://www.w3.org/1999/xlink">
<g id="graph0" class="graph" transform="scale(1 1) rotate(0) translate(4 302)">
<title>dependencies</title>
<polygon fill="white" stroke="transparent" points="-4,4 -4,-302 2320,-302 2320,4 -4,4"/>
<text text-anchor="start" x="1137.01" y="-42.4" font-family="sans-serif" font-weight="bold" font-size="14.00">Legend</text>
<polygon fill="#ffffb3" stroke="transparent" points="924,-10 924,-30 944,-30 944,-10 924,-10"/>
<text text-anchor="start" x="947.63" y="-15.4" font-family="sans-serif" font-size="14.00"> &#160;Declarations</text>
<polygon fill="#8dd3c7" stroke="transparent" points="1037,-10 1037,-30 1057,-30 1057,-10 1037,-10"/>
<text text-anchor="start" x="1060.73" y="-15.4" font-family="sans-serif" font-size="14.00"> &#160;Module</text>
<polygon fill="#80b1d3" stroke="transparent" points="1123,-10 1123,-30 1143,-30 1143,-10 1123,-10"/>
<text text-anchor="start" x="1146.78" y="-15.4" font-family="sans-serif" font-size="14.00"> &#160;Bootstrap</text>
<polygon fill="#fdb462" stroke="transparent" points="1220,-10 1220,-30 1240,-30 1240,-10 1220,-10"/>
<text text-anchor="start" x="1243.67" y="-15.4" font-family="sans-serif" font-size="14.00"> &#160;Providers</text>
<polygon fill="#fb8072" stroke="transparent" points="1316,-10 1316,-30 1336,-30 1336,-10 1316,-10"/>
<text text-anchor="start" x="1339.73" y="-15.4" font-family="sans-serif" font-size="14.00"> &#160;Exports</text>
<g id="clust1" class="cluster">
<title>cluster_AppModule</title>
<polygon fill="none" stroke="black" stroke-dasharray="1,5" points="886,-70 886,-282 1652,-282 1652,-70 886,-70"/>
</g>
<g id="clust3" class="cluster">
<title>cluster_AppModule_imports</title>
<polygon fill="none" stroke="black" points="1046,-78 1046,-206 1632,-206 1632,-78 1046,-78"/>
</g>
<g id="clust6" class="cluster">
<title>cluster_AppModule_providers</title>
<polygon fill="none" stroke="black" points="894,-154 894,-206 1024,-206 1024,-154 894,-154"/>
</g>
<g id="clust7" class="cluster">
<title>cluster_AuthModule</title>
<polygon fill="none" stroke="black" stroke-dasharray="1,5" points="1660,-222 1660,-290 2160,-290 2160,-222 1660,-222"/>
</g>
<g id="clust10" class="cluster">
<title>cluster_AuthModule_exports</title>
<polygon fill="none" stroke="black" points="1942,-230 1942,-282 2152,-282 2152,-230 1942,-230"/>
</g>
<g id="clust12" class="cluster">
<title>cluster_AuthModule_providers</title>
<polygon fill="none" stroke="black" points="1668,-230 1668,-282 1934,-282 1934,-230 1668,-230"/>
</g>
<g id="clust13" class="cluster">
<title>cluster_ClientModule</title>
<polygon fill="none" stroke="black" stroke-dasharray="1,5" points="8,-70 8,-138 326,-138 326,-70 8,-70"/>
</g>
<g id="clust18" class="cluster">
<title>cluster_ClientModule_providers</title>
<polygon fill="none" stroke="black" points="16,-78 16,-130 318,-130 318,-78 16,-78"/>
</g>
<g id="clust19" class="cluster">
<title>cluster_CurriculumModule</title>
<polygon fill="none" stroke="black" stroke-dasharray="1,5" points="334,-70 334,-138 536,-138 536,-70 334,-70"/>
</g>
<g id="clust24" class="cluster">
<title>cluster_CurriculumModule_providers</title>
<polygon fill="none" stroke="black" points="342,-78 342,-130 528,-130 528,-78 342,-78"/>
</g>
<g id="clust25" class="cluster">
<title>cluster_HelpersModule</title>
<polygon fill="none" stroke="black" stroke-dasharray="1,5" points="1660,-146 1660,-214 2040,-214 2040,-146 1660,-146"/>
</g>
<g id="clust28" class="cluster">
<title>cluster_HelpersModule_exports</title>
<polygon fill="none" stroke="black" points="1878,-154 1878,-206 2032,-206 2032,-154 1878,-154"/>
</g>
<g id="clust30" class="cluster">
<title>cluster_HelpersModule_providers</title>
<polygon fill="none" stroke="black" points="1668,-154 1668,-206 1870,-206 1870,-154 1668,-154"/>
</g>
<g id="clust31" class="cluster">
<title>cluster_ProfileModule</title>
<polygon fill="none" stroke="black" stroke-dasharray="1,5" points="544,-70 544,-138 708,-138 708,-70 544,-70"/>
</g>
<g id="clust36" class="cluster">
<title>cluster_ProfileModule_providers</title>
<polygon fill="none" stroke="black" points="552,-78 552,-130 700,-130 700,-78 552,-78"/>
</g>
<g id="clust37" class="cluster">
<title>cluster_TicketModule</title>
<polygon fill="none" stroke="black" stroke-dasharray="1,5" points="716,-70 716,-138 878,-138 878,-70 716,-70"/>
</g>
<g id="clust42" class="cluster">
<title>cluster_TicketModule_providers</title>
<polygon fill="none" stroke="black" points="724,-78 724,-130 870,-130 870,-78 724,-78"/>
</g>
<g id="clust43" class="cluster">
<title>cluster_UserModule</title>
<polygon fill="none" stroke="black" stroke-dasharray="1,5" points="2048,-146 2048,-214 2308,-214 2308,-146 2048,-146"/>
</g>
<g id="clust46" class="cluster">
<title>cluster_UserModule_exports</title>
<polygon fill="none" stroke="black" points="2196,-154 2196,-206 2300,-206 2300,-154 2196,-154"/>
</g>
<g id="clust48" class="cluster">
<title>cluster_UserModule_providers</title>
<polygon fill="none" stroke="black" points="2056,-154 2056,-206 2188,-206 2188,-154 2056,-154"/>
</g>
<!-- AuthModule -->
<g id="node1" class="node">
<title>AuthModule</title>
<polygon fill="#8dd3c7" stroke="black" points="1623.55,-198 1620.55,-202 1599.55,-202 1596.55,-198 1536.45,-198 1536.45,-162 1623.55,-162 1623.55,-198"/>
<text text-anchor="middle" x="1580" y="-175.8" font-family="Times,serif" font-size="14.00">AuthModule</text>
</g>
<!-- AppModule -->
<g id="node8" class="node">
<title>AppModule</title>
<polygon fill="#8dd3c7" stroke="black" points="1333.66,-274 1330.66,-278 1309.66,-278 1306.66,-274 1250.34,-274 1250.34,-238 1333.66,-238 1333.66,-274"/>
<text text-anchor="middle" x="1292" y="-251.8" font-family="Times,serif" font-size="14.00">AppModule</text>
</g>
<!-- AuthModule&#45;&gt;AppModule -->
<g id="edge1" class="edge">
<title>AuthModule&#45;&gt;AppModule</title>
<path fill="none" stroke="black" d="M1580,-198.2C1580,-222.36 1580,-262 1580,-262 1580,-262 1343.88,-262 1343.88,-262"/>
<polygon fill="black" stroke="black" points="1343.88,-258.5 1333.88,-262 1343.88,-265.5 1343.88,-258.5"/>
</g>
<!-- AuthService  -->
<g id="node10" class="node">
<title>AuthService </title>
<polygon fill="#fb8072" stroke="black" points="2143.98,-274 2054.02,-274 2054.02,-238 2143.98,-238 2143.98,-274"/>
<text text-anchor="middle" x="2099" y="-251.8" font-family="Times,serif" font-size="14.00">AuthService </text>
</g>
<!-- AuthModule&#45;&gt;AuthService  -->
<g id="edge10" class="edge">
<title>AuthModule&#45;&gt;AuthService </title>
<path fill="none" stroke="black" stroke-dasharray="5,2" d="M1565.41,-198.21C1565.41,-203.55 1565.41,-208 1565.41,-208 1565.41,-208 2059.02,-208 2059.02,-208 2059.02,-208 2059.02,-227.85 2059.02,-227.85"/>
<polygon fill="black" stroke="black" points="2055.52,-227.85 2059.02,-237.85 2062.52,-227.85 2055.52,-227.85"/>
</g>
<!-- JwtStrategy  -->
<g id="node11" class="node">
<title>JwtStrategy </title>
<polygon fill="#fb8072" stroke="black" points="2035.6,-274 1950.4,-274 1950.4,-238 2035.6,-238 2035.6,-274"/>
<text text-anchor="middle" x="1993" y="-251.8" font-family="Times,serif" font-size="14.00">JwtStrategy </text>
</g>
<!-- AuthModule&#45;&gt;JwtStrategy  -->
<g id="edge11" class="edge">
<title>AuthModule&#45;&gt;JwtStrategy </title>
<path fill="none" stroke="black" stroke-dasharray="5,2" d="M1550.82,-198.11C1550.82,-207.9 1550.82,-218 1550.82,-218 1550.82,-218 1987.02,-218 1987.02,-218 1987.02,-218 1987.02,-227.89 1987.02,-227.89"/>
<polygon fill="black" stroke="black" points="1983.52,-227.89 1987.02,-237.89 1990.52,-227.89 1983.52,-227.89"/>
</g>
<!-- ClientModule -->
<g id="node2" class="node">
<title>ClientModule</title>
<polygon fill="#8dd3c7" stroke="black" points="1147.77,-198 1144.77,-202 1123.77,-202 1120.77,-198 1054.23,-198 1054.23,-162 1147.77,-162 1147.77,-198"/>
<text text-anchor="middle" x="1101" y="-175.8" font-family="Times,serif" font-size="14.00">ClientModule</text>
</g>
<!-- ClientModule&#45;&gt;AppModule -->
<g id="edge2" class="edge">
<title>ClientModule&#45;&gt;AppModule</title>
<path fill="none" stroke="black" d="M1101,-198.03C1101,-218.77 1101,-250 1101,-250 1101,-250 1240.08,-250 1240.08,-250"/>
<polygon fill="black" stroke="black" points="1240.08,-253.5 1250.08,-250 1240.08,-246.5 1240.08,-253.5"/>
</g>
<!-- CurriculumModule -->
<g id="node3" class="node">
<title>CurriculumModule</title>
<polygon fill="#8dd3c7" stroke="black" points="1290.09,-198 1287.09,-202 1266.09,-202 1263.09,-198 1165.91,-198 1165.91,-162 1290.09,-162 1290.09,-198"/>
<text text-anchor="middle" x="1228" y="-175.8" font-family="Times,serif" font-size="14.00">CurriculumModule</text>
</g>
<!-- CurriculumModule&#45;&gt;AppModule -->
<g id="edge3" class="edge">
<title>CurriculumModule&#45;&gt;AppModule</title>
<path fill="none" stroke="black" d="M1270.11,-198.01C1270.11,-198.01 1270.11,-227.85 1270.11,-227.85"/>
<polygon fill="black" stroke="black" points="1266.61,-227.85 1270.11,-237.85 1273.61,-227.85 1266.61,-227.85"/>
</g>
<!-- HelpersModule -->
<g id="node4" class="node">
<title>HelpersModule</title>
<polygon fill="#8dd3c7" stroke="black" points="1518.58,-122 1515.58,-126 1494.58,-126 1491.58,-122 1415.42,-122 1415.42,-86 1518.58,-86 1518.58,-122"/>
<text text-anchor="middle" x="1467" y="-99.8" font-family="Times,serif" font-size="14.00">HelpersModule</text>
</g>
<!-- HelpersModule&#45;&gt;AppModule -->
<g id="edge4" class="edge">
<title>HelpersModule&#45;&gt;AppModule</title>
<path fill="none" stroke="black" d="M1419.4,-122.02C1419.4,-159.83 1419.4,-244 1419.4,-244 1419.4,-244 1343.72,-244 1343.72,-244"/>
<polygon fill="black" stroke="black" points="1343.72,-240.5 1333.72,-244 1343.72,-247.5 1343.72,-240.5"/>
</g>
<!-- CinGeneratorService  -->
<g id="node17" class="node">
<title>CinGeneratorService </title>
<polygon fill="#fb8072" stroke="black" points="2023.67,-198 1886.33,-198 1886.33,-162 2023.67,-162 2023.67,-198"/>
<text text-anchor="middle" x="1955" y="-175.8" font-family="Times,serif" font-size="14.00">CinGeneratorService </text>
</g>
<!-- HelpersModule&#45;&gt;CinGeneratorService  -->
<g id="edge19" class="edge">
<title>HelpersModule&#45;&gt;CinGeneratorService </title>
<path fill="none" stroke="black" stroke-dasharray="5,2" d="M1455.08,-122.11C1455.08,-131.9 1455.08,-142 1455.08,-142 1455.08,-142 1955,-142 1955,-142 1955,-142 1955,-151.89 1955,-151.89"/>
<polygon fill="black" stroke="black" points="1951.5,-151.89 1955,-161.89 1958.5,-151.89 1951.5,-151.89"/>
</g>
<!-- ProfileModule -->
<g id="node5" class="node">
<title>ProfileModule</title>
<polygon fill="#8dd3c7" stroke="black" points="1405.65,-198 1402.65,-202 1381.65,-202 1378.65,-198 1308.35,-198 1308.35,-162 1405.65,-162 1405.65,-198"/>
<text text-anchor="middle" x="1357" y="-175.8" font-family="Times,serif" font-size="14.00">ProfileModule</text>
</g>
<!-- ProfileModule&#45;&gt;AppModule -->
<g id="edge5" class="edge">
<title>ProfileModule&#45;&gt;AppModule</title>
<path fill="none" stroke="black" d="M1321,-198.01C1321,-198.01 1321,-227.85 1321,-227.85"/>
<polygon fill="black" stroke="black" points="1317.5,-227.85 1321,-237.85 1324.5,-227.85 1317.5,-227.85"/>
</g>
<!-- TicketModule -->
<g id="node6" class="node">
<title>TicketModule</title>
<polygon fill="#8dd3c7" stroke="black" points="1518.81,-198 1515.81,-202 1494.81,-202 1491.81,-198 1423.19,-198 1423.19,-162 1518.81,-162 1518.81,-198"/>
<text text-anchor="middle" x="1471" y="-175.8" font-family="Times,serif" font-size="14.00">TicketModule</text>
</g>
<!-- TicketModule&#45;&gt;AppModule -->
<g id="edge6" class="edge">
<title>TicketModule&#45;&gt;AppModule</title>
<path fill="none" stroke="black" d="M1471,-198.03C1471,-218.77 1471,-250 1471,-250 1471,-250 1343.97,-250 1343.97,-250"/>
<polygon fill="black" stroke="black" points="1343.97,-246.5 1333.97,-250 1343.97,-253.5 1343.97,-246.5"/>
</g>
<!-- UserModule -->
<g id="node7" class="node">
<title>UserModule</title>
<polygon fill="#8dd3c7" stroke="black" points="1622.98,-122 1619.98,-126 1598.98,-126 1595.98,-122 1537.02,-122 1537.02,-86 1622.98,-86 1622.98,-122"/>
<text text-anchor="middle" x="1580" y="-99.8" font-family="Times,serif" font-size="14.00">UserModule</text>
</g>
<!-- UserModule&#45;&gt;AuthModule -->
<g id="edge9" class="edge">
<title>UserModule&#45;&gt;AuthModule</title>
<path fill="none" stroke="black" d="M1605.79,-122.01C1605.79,-122.01 1605.79,-151.85 1605.79,-151.85"/>
<polygon fill="black" stroke="black" points="1602.29,-151.85 1605.79,-161.85 1609.29,-151.85 1602.29,-151.85"/>
</g>
<!-- UserModule&#45;&gt;ClientModule -->
<g id="edge14" class="edge">
<title>UserModule&#45;&gt;ClientModule</title>
<path fill="none" stroke="black" d="M1554.21,-122.06C1554.21,-133.44 1554.21,-146 1554.21,-146 1554.21,-146 1124.44,-146 1124.44,-146 1124.44,-146 1124.44,-151.81 1124.44,-151.81"/>
<polygon fill="black" stroke="black" points="1120.94,-151.81 1124.44,-161.81 1127.94,-151.81 1120.94,-151.81"/>
</g>
<!-- UserModule&#45;&gt;CurriculumModule -->
<g id="edge17" class="edge">
<title>UserModule&#45;&gt;CurriculumModule</title>
<path fill="none" stroke="black" d="M1571.4,-122.18C1571.4,-135.04 1571.4,-150 1571.4,-150 1571.4,-150 1248.68,-150 1248.68,-150 1248.68,-150 1248.68,-151.86 1248.68,-151.86"/>
<polygon fill="black" stroke="black" points="1245.18,-151.86 1248.68,-161.86 1252.18,-151.86 1245.18,-151.86"/>
</g>
<!-- UserModule&#45;&gt;ProfileModule -->
<g id="edge21" class="edge">
<title>UserModule&#45;&gt;ProfileModule</title>
<path fill="none" stroke="black" d="M1588.6,-122.28C1588.6,-137.95 1588.6,-158 1588.6,-158 1588.6,-158 1373.27,-158 1373.27,-158 1373.27,-158 1373.27,-158.38 1373.27,-158.38"/>
<polygon fill="black" stroke="black" points="1369.78,-151.83 1373.27,-161.83 1376.78,-151.83 1369.78,-151.83"/>
</g>
<!-- UserModule&#45;&gt;TicketModule -->
<g id="edge23" class="edge">
<title>UserModule&#45;&gt;TicketModule</title>
<path fill="none" stroke="black" d="M1536.83,-98C1529.66,-98 1524.51,-98 1524.51,-98 1524.51,-98 1524.51,-180 1524.51,-180 1524.51,-180 1523.94,-180 1523.94,-180"/>
<polygon fill="black" stroke="black" points="1528.79,-176.5 1518.79,-180 1528.79,-183.5 1528.79,-176.5"/>
</g>
<!-- UserModule&#45;&gt;AppModule -->
<g id="edge7" class="edge">
<title>UserModule&#45;&gt;AppModule</title>
<path fill="none" stroke="black" d="M1536.86,-110C1532.92,-110 1530.37,-110 1530.37,-110 1530.37,-110 1530.37,-256 1530.37,-256 1530.37,-256 1343.79,-256 1343.79,-256"/>
<polygon fill="black" stroke="black" points="1343.79,-252.5 1333.79,-256 1343.79,-259.5 1343.79,-252.5"/>
</g>
<!-- UserService  -->
<g id="node21" class="node">
<title>UserService </title>
<polygon fill="#fb8072" stroke="black" points="2291.9,-198 2204.1,-198 2204.1,-162 2291.9,-162 2291.9,-198"/>
<text text-anchor="middle" x="2248" y="-175.8" font-family="Times,serif" font-size="14.00">UserService </text>
</g>
<!-- UserModule&#45;&gt;UserService  -->
<g id="edge25" class="edge">
<title>UserModule&#45;&gt;UserService </title>
<path fill="none" stroke="black" stroke-dasharray="5,2" d="M1623.06,-98C1770.79,-98 2248,-98 2248,-98 2248,-98 2248,-151.8 2248,-151.8"/>
<polygon fill="black" stroke="black" points="2244.5,-151.8 2248,-161.8 2251.5,-151.8 2244.5,-151.8"/>
</g>
<!-- AppService -->
<g id="node9" class="node">
<title>AppService</title>
<ellipse fill="#fdb462" stroke="black" cx="959" cy="-180" rx="56.74" ry="18"/>
<text text-anchor="middle" x="959" y="-175.8" font-family="Times,serif" font-size="14.00">AppService</text>
</g>
<!-- AppService&#45;&gt;AppModule -->
<g id="edge8" class="edge">
<title>AppService&#45;&gt;AppModule</title>
<path fill="none" stroke="black" d="M959,-198.2C959,-222.36 959,-262 959,-262 959,-262 1240.16,-262 1240.16,-262"/>
<polygon fill="black" stroke="black" points="1240.16,-265.5 1250.16,-262 1240.16,-258.5 1240.16,-265.5"/>
</g>
<!-- AuthService -->
<g id="node12" class="node">
<title>AuthService</title>
<ellipse fill="#fdb462" stroke="black" cx="1867" cy="-256" rx="59.11" ry="18"/>
<text text-anchor="middle" x="1867" y="-251.8" font-family="Times,serif" font-size="14.00">AuthService</text>
</g>
<!-- AuthService&#45;&gt;AuthModule -->
<g id="edge12" class="edge">
<title>AuthService&#45;&gt;AuthModule</title>
<path fill="none" stroke="black" d="M1834.62,-240.69C1834.62,-234.15 1834.62,-228 1834.62,-228 1834.62,-228 1594.59,-228 1594.59,-228 1594.59,-228 1594.59,-208.15 1594.59,-208.15"/>
<polygon fill="black" stroke="black" points="1598.09,-208.15 1594.59,-198.15 1591.09,-208.15 1598.09,-208.15"/>
</g>
<!-- JwtStrategy -->
<g id="node13" class="node">
<title>JwtStrategy</title>
<ellipse fill="#fdb462" stroke="black" cx="1733" cy="-256" rx="56.76" ry="18"/>
<text text-anchor="middle" x="1733" y="-251.8" font-family="Times,serif" font-size="14.00">JwtStrategy</text>
</g>
<!-- JwtStrategy&#45;&gt;AuthModule -->
<g id="edge13" class="edge">
<title>JwtStrategy&#45;&gt;AuthModule</title>
<path fill="none" stroke="black" d="M1690.74,-268C1654.87,-268 1609.18,-268 1609.18,-268 1609.18,-268 1609.18,-208.23 1609.18,-208.23"/>
<polygon fill="black" stroke="black" points="1612.68,-208.23 1609.18,-198.23 1605.68,-208.23 1612.68,-208.23"/>
</g>
<!-- ClientService -->
<g id="node14" class="node">
<title>ClientService</title>
<ellipse fill="#fdb462" stroke="black" cx="246" cy="-104" rx="63.7" ry="18"/>
<text text-anchor="middle" x="246" y="-99.8" font-family="Times,serif" font-size="14.00">ClientService</text>
</g>
<!-- ClientService&#45;&gt;ClientModule -->
<g id="edge15" class="edge">
<title>ClientService&#45;&gt;ClientModule</title>
<path fill="none" stroke="black" d="M246,-122.14C246,-128.46 246,-134 246,-134 246,-134 1101,-134 1101,-134 1101,-134 1101,-151.82 1101,-151.82"/>
<polygon fill="black" stroke="black" points="1097.5,-151.82 1101,-161.82 1104.5,-151.82 1097.5,-151.82"/>
</g>
<!-- ContactService -->
<g id="node15" class="node">
<title>ContactService</title>
<ellipse fill="#fdb462" stroke="black" cx="94" cy="-104" rx="70.06" ry="18"/>
<text text-anchor="middle" x="94" y="-99.8" font-family="Times,serif" font-size="14.00">ContactService</text>
</g>
<!-- ContactService&#45;&gt;ClientModule -->
<g id="edge16" class="edge">
<title>ContactService&#45;&gt;ClientModule</title>
<path fill="none" stroke="black" d="M94,-122.19C94,-130.28 94,-138 94,-138 94,-138 1077.56,-138 1077.56,-138 1077.56,-138 1077.56,-151.94 1077.56,-151.94"/>
<polygon fill="black" stroke="black" points="1074.06,-151.94 1077.56,-161.94 1081.06,-151.94 1074.06,-151.94"/>
</g>
<!-- CurriculumService -->
<g id="node16" class="node">
<title>CurriculumService</title>
<ellipse fill="#fdb462" stroke="black" cx="435" cy="-104" rx="84.53" ry="18"/>
<text text-anchor="middle" x="435" y="-99.8" font-family="Times,serif" font-size="14.00">CurriculumService</text>
</g>
<!-- CurriculumService&#45;&gt;CurriculumModule -->
<g id="edge18" class="edge">
<title>CurriculumService&#45;&gt;CurriculumModule</title>
<path fill="none" stroke="black" d="M435,-122.06C435,-126.49 435,-130 435,-130 435,-130 1207.32,-130 1207.32,-130 1207.32,-130 1207.32,-151.95 1207.32,-151.95"/>
<polygon fill="black" stroke="black" points="1203.82,-151.95 1207.32,-161.95 1210.82,-151.95 1203.82,-151.95"/>
</g>
<!-- CinGeneratorService -->
<g id="node18" class="node">
<title>CinGeneratorService</title>
<ellipse fill="#fdb462" stroke="black" cx="1769" cy="-180" rx="92.59" ry="18"/>
<text text-anchor="middle" x="1769" y="-175.8" font-family="Times,serif" font-size="14.00">CinGeneratorService</text>
</g>
<!-- CinGeneratorService&#45;&gt;HelpersModule -->
<g id="edge20" class="edge">
<title>CinGeneratorService&#45;&gt;HelpersModule</title>
<path fill="none" stroke="black" d="M1769,-161.94C1769,-157.51 1769,-154 1769,-154 1769,-154 1486.81,-154 1486.81,-154 1486.81,-154 1486.81,-132.05 1486.81,-132.05"/>
<polygon fill="black" stroke="black" points="1490.31,-132.05 1486.81,-122.05 1483.31,-132.05 1490.31,-132.05"/>
</g>
<!-- ProfileService -->
<g id="node19" class="node">
<title>ProfileService</title>
<ellipse fill="#fdb462" stroke="black" cx="626" cy="-104" rx="66.05" ry="18"/>
<text text-anchor="middle" x="626" y="-99.8" font-family="Times,serif" font-size="14.00">ProfileService</text>
</g>
<!-- ProfileService&#45;&gt;ProfileModule -->
<g id="edge22" class="edge">
<title>ProfileService&#45;&gt;ProfileModule</title>
<path fill="none" stroke="black" d="M626,-122.17C626,-124.45 626,-126 626,-126 626,-126 1340.73,-126 1340.73,-126 1340.73,-126 1340.73,-151.72 1340.73,-151.72"/>
<polygon fill="black" stroke="black" points="1337.23,-151.72 1340.73,-161.72 1344.23,-151.72 1337.23,-151.72"/>
</g>
<!-- TicketService -->
<g id="node20" class="node">
<title>TicketService</title>
<ellipse fill="#fdb462" stroke="black" cx="797" cy="-104" rx="64.82" ry="18"/>
<text text-anchor="middle" x="797" y="-99.8" font-family="Times,serif" font-size="14.00">TicketService</text>
</g>
<!-- TicketService&#45;&gt;TicketModule -->
<g id="edge24" class="edge">
<title>TicketService&#45;&gt;TicketModule</title>
<path fill="none" stroke="black" d="M861.8,-104C1019.54,-104 1410.64,-104 1410.64,-104 1410.64,-104 1410.64,-180 1410.64,-180 1410.64,-180 1413.15,-180 1413.15,-180"/>
<polygon fill="black" stroke="black" points="1413.15,-183.5 1423.15,-180 1413.15,-176.5 1413.15,-183.5"/>
</g>
<!-- UserService -->
<g id="node22" class="node">
<title>UserService</title>
<ellipse fill="#fdb462" stroke="black" cx="2122" cy="-180" rx="58.44" ry="18"/>
<text text-anchor="middle" x="2122" y="-175.8" font-family="Times,serif" font-size="14.00">UserService</text>
</g>
<!-- UserService&#45;&gt;UserModule -->
<g id="edge26" class="edge">
<title>UserService&#45;&gt;UserModule</title>
<path fill="none" stroke="black" d="M2122,-161.97C2122,-141.23 2122,-110 2122,-110 2122,-110 1632.98,-110 1632.98,-110"/>
<polygon fill="black" stroke="black" points="1632.98,-106.5 1622.98,-110 1632.98,-113.5 1632.98,-106.5"/>
</g>
</g>
</svg>
